<?xml version="1.0" encoding="utf-8"?>
<!-- Generator: Adobe Illustrator 25.2.0, SVG Export Plug-In . SVG Version: 6.00 Build 0)  -->
<svg version="1.1" id="Layer_1" xmlns="http://www.w3.org/2000/svg" xmlns:xlink="http://www.w3.org/1999/xlink" x="0px" y="0px"
	 viewBox="0 0 550 567.82" style="enable-background:new 0 0 550 567.82;" xml:space="preserve">
<style type="text/css">
	.st0{fill:#153FB7;}
	.st1{fill:#3985FF;}
	.st2{fill:#55B6FF;}
	.st3{fill:#7C7C7C;}
	.st4{fill:#98473E;}
	.st5{fill:#077187;}
</style>
<g>
	<g>
		<rect x="255.11" y="264.02" class="st3" width="39.78" height="39.78"/>
		<g>
			<rect x="215.33" y="184.46" width="39.78" height="39.78"/>
			<rect x="255.11" y="184.46" class="st3" width="39.78" height="39.78"/>
			<rect x="294.89" y="184.46" width="39.78" height="39.78"/>
		</g>
		<g>
			<rect x="255.11" y="343.58" class="st3" width="39.78" height="39.78"/>
			<rect x="294.89" y="343.58" width="39.78" height="39.78"/>
		</g>
		<g>
			
				<rect x="334.67" y="224.24" transform="matrix(-1.836970e-16 1 -1 -1.836970e-16 598.6883 -110.4284)" width="39.78" height="39.78"/>
			
				<rect x="334.67" y="264.02" transform="matrix(-1.836970e-16 1 -1 -1.836970e-16 638.4675 -70.6492)" class="st3" width="39.78" height="39.78"/>
			
				<rect x="334.67" y="303.8" transform="matrix(-1.836970e-16 1 -1 -1.836970e-16 678.2466 -30.87)" width="39.78" height="39.78"/>
		</g>
		<g>
			
				<rect x="175.55" y="224.24" transform="matrix(-1.836970e-16 1 -1 -1.836970e-16 439.5716 48.6883)" width="39.78" height="39.78"/>
			
				<rect x="175.55" y="264.02" transform="matrix(-1.836970e-16 1 -1 -1.836970e-16 479.3508 88.4675)" class="st3" width="39.78" height="39.78"/>
			
				<rect x="175.55" y="303.8" transform="matrix(-1.836970e-16 1 -1 -1.836970e-16 519.1299 128.2466)" width="39.78" height="39.78"/>
		</g>
	</g>
</g>
</svg>
