<?xml version="1.0" encoding="UTF-8" standalone="no"?><svg xmlns="http://www.w3.org/2000/svg" xmlns:xlink="http://www.w3.org/1999/xlink" contentScriptType="application/ecmascript" contentStyleType="text/css" height="492px" preserveAspectRatio="none" style="width:961px;height:492px;background:#FFFFFF;" version="1.1" viewBox="0 0 961 492" width="961px" zoomAndPan="magnify"><defs><filter height="300%" id="frxu6opu4tktv" width="300%" x="-1" y="-1"><feGaussianBlur result="blurOut" stdDeviation="2.0"/><feColorMatrix in="blurOut" result="blurOut2" type="matrix" values="0 0 0 0 0 0 0 0 0 0 0 0 0 0 0 0 0 0 .4 0"/><feOffset dx="4.0" dy="4.0" in="blurOut2" result="blurOut3"/><feBlend in="SourceGraphic" in2="blurOut3" mode="normal"/></filter></defs><g><!--MD5=[ed6624c6556d5e7b1bd23032162d20b7]
class Client--><rect codeLine="2" fill="#FEFECE" filter="url(#frxu6opu4tktv)" height="48" id="Client" style="stroke:#A80036;stroke-width:1.5;" width="64" x="434.5" y="7"/><ellipse cx="449.5" cy="23" fill="#ADD1B2" rx="11" ry="11" style="stroke:#A80036;stroke-width:1.0;"/><path d="M451.9731,29.1431 Q451.3921,29.4419 450.7529,29.5913 Q450.1138,29.7407 449.4082,29.7407 Q446.9014,29.7407 445.5815,28.0889 Q444.2617,26.437 444.2617,23.3159 Q444.2617,20.1865 445.5815,18.5347 Q446.9014,16.8828 449.4082,16.8828 Q450.1138,16.8828 450.7612,17.0322 Q451.4087,17.1816 451.9731,17.4805 L451.9731,20.2031 Q451.3423,19.6221 450.7488,19.3523 Q450.1553,19.0825 449.5244,19.0825 Q448.1797,19.0825 447.4949,20.1492 Q446.8101,21.2158 446.8101,23.3159 Q446.8101,25.4077 447.4949,26.4744 Q448.1797,27.541 449.5244,27.541 Q450.1553,27.541 450.7488,27.2712 Q451.3423,27.0015 451.9731,26.4204 Z " fill="#000000"/><text fill="#000000" font-family="sans-serif" font-size="12" lengthAdjust="spacing" textLength="32" x="463.5" y="27.5352">Client</text><line style="stroke:#A80036;stroke-width:1.5;" x1="435.5" x2="497.5" y1="39" y2="39"/><line style="stroke:#A80036;stroke-width:1.5;" x1="435.5" x2="497.5" y1="47" y2="47"/><!--MD5=[6754354365917abf8f1a56af1b7e344c]
class Context--><rect codeLine="3" fill="#FEFECE" filter="url(#frxu6opu4tktv)" height="48" id="Context" style="stroke:#A80036;stroke-width:1.5;" width="76" x="428.5" y="176"/><ellipse cx="443.5" cy="192" fill="#ADD1B2" rx="11" ry="11" style="stroke:#A80036;stroke-width:1.0;"/><path d="M445.9731,198.1431 Q445.3921,198.4419 444.7529,198.5913 Q444.1138,198.7407 443.4082,198.7407 Q440.9014,198.7407 439.5815,197.0889 Q438.2617,195.437 438.2617,192.3159 Q438.2617,189.1865 439.5815,187.5347 Q440.9014,185.8828 443.4082,185.8828 Q444.1138,185.8828 444.7612,186.0322 Q445.4087,186.1816 445.9731,186.4805 L445.9731,189.2031 Q445.3423,188.6221 444.7488,188.3523 Q444.1553,188.0825 443.5244,188.0825 Q442.1797,188.0825 441.4949,189.1492 Q440.8101,190.2158 440.8101,192.3159 Q440.8101,194.4077 441.4949,195.4744 Q442.1797,196.541 443.5244,196.541 Q444.1553,196.541 444.7488,196.2712 Q445.3423,196.0015 445.9731,195.4204 Z " fill="#000000"/><text fill="#000000" font-family="sans-serif" font-size="12" lengthAdjust="spacing" textLength="44" x="457.5" y="196.5352">Context</text><line style="stroke:#A80036;stroke-width:1.5;" x1="429.5" x2="503.5" y1="208" y2="208"/><line style="stroke:#A80036;stroke-width:1.5;" x1="429.5" x2="503.5" y1="216" y2="216"/><!--MD5=[ea193e58bf01a8bb640ee5c4ebd1a9a0]
class Transport--><rect codeLine="5" fill="#FEFECE" filter="url(#frxu6opu4tktv)" height="60.9551" id="Transport" style="stroke:#A80036;stroke-width:1.5;" width="182" x="375.5" y="284"/><ellipse cx="433.75" cy="300" fill="#B4A7E5" rx="11" ry="11" style="stroke:#A80036;stroke-width:1.0;"/><path d="M430.1777,296.2651 L430.1777,294.1069 L437.5571,294.1069 L437.5571,296.2651 L435.0918,296.2651 L435.0918,304.3418 L437.5571,304.3418 L437.5571,306.5 L430.1777,306.5 L430.1777,304.3418 L432.6431,304.3418 L432.6431,296.2651 Z " fill="#000000"/><text fill="#000000" font-family="sans-serif" font-size="12" font-style="italic" lengthAdjust="spacing" textLength="57" x="454.25" y="304.5352">Transport</text><line style="stroke:#A80036;stroke-width:1.5;" x1="376.5" x2="556.5" y1="316" y2="316"/><line style="stroke:#A80036;stroke-width:1.5;" x1="376.5" x2="556.5" y1="324" y2="324"/><text fill="#000000" font-family="sans-serif" font-size="11" lengthAdjust="spacing" textLength="170" x="381.5" y="338.6348">findPath(point a, point b): Route</text><!--MD5=[57ba5c3817724c4287498f1d01d81513]
class Bus--><rect codeLine="10" fill="#FEFECE" filter="url(#frxu6opu4tktv)" height="73.9102" id="Bus" style="stroke:#A80036;stroke-width:1.5;" width="279" x="7" y="405"/><ellipse cx="132.25" cy="421" fill="#ADD1B2" rx="11" ry="11" style="stroke:#A80036;stroke-width:1.0;"/><path d="M134.7231,427.1431 Q134.1421,427.4419 133.5029,427.5913 Q132.8638,427.7407 132.1582,427.7407 Q129.6514,427.7407 128.3315,426.0889 Q127.0117,424.437 127.0117,421.3159 Q127.0117,418.1865 128.3315,416.5347 Q129.6514,414.8828 132.1582,414.8828 Q132.8638,414.8828 133.5112,415.0322 Q134.1587,415.1816 134.7231,415.4805 L134.7231,418.2031 Q134.0923,417.6221 133.4988,417.3523 Q132.9053,417.0825 132.2744,417.0825 Q130.9297,417.0825 130.2449,418.1492 Q129.5601,419.2158 129.5601,421.3159 Q129.5601,423.4077 130.2449,424.4744 Q130.9297,425.541 132.2744,425.541 Q132.9053,425.541 133.4988,425.2712 Q134.0923,425.0015 134.7231,424.4204 Z " fill="#000000"/><text fill="#000000" font-family="sans-serif" font-size="12" lengthAdjust="spacing" textLength="20" x="152.75" y="425.5352">Bus</text><line style="stroke:#A80036;stroke-width:1.5;" x1="8" x2="285" y1="437" y2="437"/><text fill="#000000" font-family="sans-serif" font-size="11" lengthAdjust="spacing" textLength="267" x="13" y="451.6348">Kjo klase mundeson qe te gjehet rruga per nje Bus</text><line style="stroke:#A80036;stroke-width:1.0;" x1="8" x2="285" y1="457.9551" y2="457.9551"/><text fill="#000000" font-family="sans-serif" font-size="11" lengthAdjust="spacing" textLength="170" x="13" y="472.5898">findPath(point a, point b): Route</text><!--MD5=[3f0ef310aaa84a542276992c5216544d]
class Car--><rect codeLine="15" fill="#FEFECE" filter="url(#frxu6opu4tktv)" height="73.9102" id="Car" style="stroke:#A80036;stroke-width:1.5;" width="291" x="321" y="405"/><ellipse cx="452.25" cy="421" fill="#ADD1B2" rx="11" ry="11" style="stroke:#A80036;stroke-width:1.0;"/><path d="M454.7231,427.1431 Q454.1421,427.4419 453.5029,427.5913 Q452.8638,427.7407 452.1582,427.7407 Q449.6514,427.7407 448.3315,426.0889 Q447.0117,424.437 447.0117,421.3159 Q447.0117,418.1865 448.3315,416.5347 Q449.6514,414.8828 452.1582,414.8828 Q452.8638,414.8828 453.5112,415.0322 Q454.1587,415.1816 454.7231,415.4805 L454.7231,418.2031 Q454.0923,417.6221 453.4988,417.3523 Q452.9053,417.0825 452.2744,417.0825 Q450.9297,417.0825 450.2449,418.1492 Q449.5601,419.2158 449.5601,421.3159 Q449.5601,423.4077 450.2449,424.4744 Q450.9297,425.541 452.2744,425.541 Q452.9053,425.541 453.4988,425.2712 Q454.0923,425.0015 454.7231,424.4204 Z " fill="#000000"/><text fill="#000000" font-family="sans-serif" font-size="12" lengthAdjust="spacing" textLength="20" x="472.75" y="425.5352">Car</text><line style="stroke:#A80036;stroke-width:1.5;" x1="322" x2="611" y1="437" y2="437"/><text fill="#000000" font-family="sans-serif" font-size="11" lengthAdjust="spacing" textLength="279" x="327" y="451.6348">Kjo klas mundeson qe te gjehet rruga per nje veture.</text><line style="stroke:#A80036;stroke-width:1.0;" x1="322" x2="611" y1="457.9551" y2="457.9551"/><text fill="#000000" font-family="sans-serif" font-size="11" lengthAdjust="spacing" textLength="170" x="327" y="472.5898">findPath(point a, point b): Route</text><!--MD5=[b1f788f6933bd6feedbe6f2f9e137947]
class Bike--><rect codeLine="21" fill="#FEFECE" filter="url(#frxu6opu4tktv)" height="73.9102" id="Bike" style="stroke:#A80036;stroke-width:1.5;" width="300" x="647.5" y="405"/><ellipse cx="781.25" cy="421" fill="#ADD1B2" rx="11" ry="11" style="stroke:#A80036;stroke-width:1.0;"/><path d="M783.7231,427.1431 Q783.1421,427.4419 782.5029,427.5913 Q781.8638,427.7407 781.1582,427.7407 Q778.6514,427.7407 777.3315,426.0889 Q776.0117,424.437 776.0117,421.3159 Q776.0117,418.1865 777.3315,416.5347 Q778.6514,414.8828 781.1582,414.8828 Q781.8638,414.8828 782.5112,415.0322 Q783.1587,415.1816 783.7231,415.4805 L783.7231,418.2031 Q783.0923,417.6221 782.4988,417.3523 Q781.9053,417.0825 781.2744,417.0825 Q779.9297,417.0825 779.2449,418.1492 Q778.5601,419.2158 778.5601,421.3159 Q778.5601,423.4077 779.2449,424.4744 Q779.9297,425.541 781.2744,425.541 Q781.9053,425.541 782.4988,425.2712 Q783.0923,425.0015 783.7231,424.4204 Z " fill="#000000"/><text fill="#000000" font-family="sans-serif" font-size="12" lengthAdjust="spacing" textLength="24" x="801.75" y="425.5352">Bike</text><line style="stroke:#A80036;stroke-width:1.5;" x1="648.5" x2="946.5" y1="437" y2="437"/><text fill="#000000" font-family="sans-serif" font-size="11" lengthAdjust="spacing" textLength="288" x="653.5" y="451.6348">kjo klas mundeson qe te gjehet rruga per nje biciklete.</text><line style="stroke:#A80036;stroke-width:1.0;" x1="648.5" x2="946.5" y1="457.9551" y2="457.9551"/><text fill="#000000" font-family="sans-serif" font-size="11" lengthAdjust="spacing" textLength="170" x="653.5" y="472.5898">findPath(point a, point b): Route</text><!--MD5=[b67765e92eb1888ae5b1de0c9c20f931]
link Client to Context--><path codeLine="4" d="M466.5,55.22 C466.5,87.13 466.5,144.17 466.5,175.98 " fill="none" id="Client-Context" style="stroke:#A80036;stroke-width:1.0;"/><!--MD5=[adf088e0916846abf06971f1cf4b05d0]
reverse link Context to Transport--><path codeLine="8" d="M466.5,237.07 C466.5,252.1 466.5,269.35 466.5,283.65 " fill="none" id="Context-backto-Transport" style="stroke:#A80036;stroke-width:1.0;"/><polygon fill="#A80036" points="466.5,224.04,462.5,230.04,466.5,236.04,470.5,230.04,466.5,224.04" style="stroke:#A80036;stroke-width:1.0;"/><!--MD5=[e4dbc6f3279288ebe77e919bbf072054]
reverse link Transport to Bus--><path codeLine="27" d="M386.21,346.99 C341.33,364.59 285.21,386.6 238.55,404.9 " fill="none" id="Transport-backto-Bus" style="stroke:#A80036;stroke-width:1.0;"/><polygon fill="#A80036" points="391.07,345.08,381.2319,344.6198,386.4111,346.895,384.1359,352.0741,391.07,345.08" style="stroke:#A80036;stroke-width:1.0;"/><!--MD5=[7600c07c3d2c70436d98a2b357e12dfb]
reverse link Transport to Car--><path codeLine="28" d="M466.5,350.38 C466.5,367.31 466.5,387.65 466.5,404.76 " fill="none" id="Transport-backto-Car" style="stroke:#A80036;stroke-width:1.0;"/><polygon fill="#A80036" points="466.5,345.24,462.5,354.24,466.5,350.24,470.5,354.24,466.5,345.24" style="stroke:#A80036;stroke-width:1.0;"/><!--MD5=[4b61b602ec2a6a5860e2ba02e8af44ee]
reverse link Transport to Bike--><path codeLine="29" d="M549.27,346.88 C595.74,364.5 653.93,386.56 702.28,404.9 " fill="none" id="Transport-backto-Bike" style="stroke:#A80036;stroke-width:1.0;"/><polygon fill="#A80036" points="544.52,345.08,551.517,352.0112,549.1952,346.8528,554.3535,344.531,544.52,345.08" style="stroke:#A80036;stroke-width:1.0;"/><!--MD5=[2080c12161bc74aae07aaa19bb9531fc]
@startuml

class Client
class Context
Client - - - Context
interface Transport {
findPath(point a, point b): Route
}
Context *- - Transport

class Bus {
    Kjo klase mundeson qe te gjehet rruga per nje Bus
    - - -
    findPath(point a, point b): Route
}
class Car {
    Kjo klas mundeson qe te gjehet rruga per nje veture.
    - - -
    findPath(point a, point b): Route
}

class Bike {
    kjo klas mundeson qe te gjehet rruga per nje biciklete.
    - - -
    findPath(point a, point b): Route
}

Transport <- - Bus
Transport <- - Car
Transport <- - Bike
@enduml

PlantUML version 1.2021.15(Tue Nov 30 17:45:34 CET 2021)
(GPL source distribution)
Java Runtime: OpenJDK Runtime Environment
JVM: OpenJDK 64-Bit Server VM
Default Encoding: UTF-8
Language: en
Country: GB
--></g></svg>